<svg width="177" height="40" viewBox="0 0 177 40" fill="none" xmlns="http://www.w3.org/2000/svg">
<path d="M108.457 14.512C110.089 14.512 111.401 15.016 112.393 16.024C113.401 17.016 113.905 18.408 113.905 20.2V28H110.545V20.656C110.545 19.616 110.281 18.824 109.753 18.28C109.225 17.72 108.505 17.44 107.593 17.44C106.681 17.44 105.953 17.72 105.409 18.28C104.881 18.824 104.617 19.616 104.617 20.656V28H101.257V20.656C101.257 19.616 100.993 18.824 100.465 18.28C99.9371 17.72 99.2171 17.44 98.3051 17.44C97.3771 17.44 96.6411 17.72 96.0971 18.28C95.5691 18.824 95.3051 19.616 95.3051 20.656V28H91.9451V14.704H95.3051V16.312C95.7371 15.752 96.2891 15.312 96.9611 14.992C97.6491 14.672 98.4011 14.512 99.2171 14.512C100.257 14.512 101.185 14.736 102.001 15.184C102.817 15.616 103.449 16.24 103.897 17.056C104.329 16.288 104.953 15.672 105.769 15.208C106.601 14.744 107.497 14.512 108.457 14.512Z" fill="white"/>
<path d="M60.5119 15C62.1439 15 63.4559 15.504 64.4479 16.512C65.4559 17.504 65.9599 18.896 65.9599 20.688V28.488H62.5999V21.144C62.5999 20.104 62.3359 19.312 61.8079 18.768C61.2799 18.208 60.5599 17.928 59.6479 17.928C58.7359 17.928 58.0079 18.208 57.4639 18.768C56.9359 19.312 56.6719 20.104 56.6719 21.144V28.488H53.312V21.144C53.312 20.104 53.048 19.312 52.52 18.768C51.992 18.208 51.272 17.928 50.36 17.928C49.432 17.928 48.696 18.208 48.152 18.768C47.624 19.312 47.36 20.104 47.36 21.144V28.488H44V15.192H47.36V16.8C47.792 16.24 48.344 15.8 49.016 15.48C49.704 15.16 50.456 15 51.272 15C52.312 15 53.24 15.224 54.056 15.672C54.872 16.104 55.5039 16.728 55.9519 17.544C56.3839 16.776 57.0079 16.16 57.8239 15.696C58.6559 15.232 59.5519 15 60.5119 15Z" fill="white"/>
<path d="M122.997 28.216C121.717 28.216 120.565 27.936 119.541 27.376C118.517 26.8 117.709 25.992 117.117 24.952C116.541 23.912 116.253 22.712 116.253 21.352C116.253 19.992 116.549 18.792 117.141 17.752C117.749 16.712 118.573 15.912 119.613 15.352C120.653 14.776 121.813 14.488 123.093 14.488C124.373 14.488 125.533 14.776 126.573 15.352C127.613 15.912 128.429 16.712 129.021 17.752C129.629 18.792 129.933 19.992 129.933 21.352C129.933 22.712 129.621 23.912 128.997 24.952C128.389 25.992 127.557 26.8 126.501 27.376C125.461 27.936 124.293 28.216 122.997 28.216ZM122.997 25.288C123.605 25.288 124.173 25.144 124.701 24.856C125.245 24.552 125.677 24.104 125.997 23.512C126.317 22.92 126.477 22.2 126.477 21.352C126.477 20.088 126.141 19.12 125.469 18.448C124.813 17.76 124.005 17.416 123.045 17.416C122.085 17.416 121.277 17.76 120.621 18.448C119.981 19.12 119.661 20.088 119.661 21.352C119.661 22.616 119.973 23.592 120.597 24.28C121.237 24.952 122.037 25.288 122.997 25.288Z" fill="white"/>
<path d="M139.766 14.512C141.35 14.512 142.63 15.016 143.606 16.024C144.582 17.016 145.07 18.408 145.07 20.2V28H141.71V20.656C141.71 19.6 141.446 18.792 140.918 18.232C140.39 17.656 139.67 17.368 138.758 17.368C137.83 17.368 137.094 17.656 136.55 18.232C136.022 18.792 135.758 19.6 135.758 20.656V28H132.398V14.704H135.758V16.36C136.206 15.784 136.774 15.336 137.462 15.016C138.166 14.68 138.934 14.512 139.766 14.512Z" fill="white"/>
<path d="M160.625 21.064C160.625 21.544 160.593 21.976 160.529 22.36H150.809C150.889 23.32 151.225 24.072 151.817 24.616C152.409 25.16 153.137 25.432 154.001 25.432C155.249 25.432 156.137 24.896 156.665 23.824H160.289C159.905 25.104 159.169 26.16 158.081 26.992C156.993 27.808 155.657 28.216 154.073 28.216C152.793 28.216 151.641 27.936 150.617 27.376C149.609 26.8 148.817 25.992 148.241 24.952C147.681 23.912 147.401 22.712 147.401 21.352C147.401 19.976 147.681 18.768 148.241 17.728C148.801 16.688 149.585 15.888 150.593 15.328C151.601 14.768 152.761 14.488 154.073 14.488C155.337 14.488 156.465 14.76 157.457 15.304C158.465 15.848 159.241 16.624 159.785 17.632C160.345 18.624 160.625 19.768 160.625 21.064ZM157.145 20.104C157.129 19.24 156.817 18.552 156.209 18.04C155.601 17.512 154.857 17.248 153.977 17.248C153.145 17.248 152.441 17.504 151.865 18.016C151.305 18.512 150.961 19.208 150.833 20.104H157.145Z" fill="white"/>
<path d="M175.798 14.704L167.566 34.288H163.99L166.87 27.664L161.542 14.704H165.31L168.742 23.992L172.222 14.704H175.798Z" fill="white"/>
<path d="M81.256 15L73.024 34.584H69.448L72.328 27.96L67 15H70.768L74.2 24.288L77.68 15H81.256Z" fill="white"/>
<path d="M34.1422 5.85781C30.3647 2.08031 25.3422 0 20 0C14.6578 0 9.63531 2.08031 5.85781 5.85781C2.08031 9.63531 0 14.6578 0 20C0 25.3422 2.08039 30.3646 5.85781 34.1422C9.63523 37.9198 14.6578 40 20 40C25.3422 40 30.3647 37.9197 34.1422 34.1422C37.9197 30.3647 40 25.3422 40 20C40 14.6578 37.9196 9.63539 34.1422 5.85781Z" fill="#33CC95"/>
<path d="M20.5714 8V33.1429" stroke="white" stroke-width="2" stroke-linecap="round" stroke-linejoin="round"/>
<path d="M26.2857 12.5714H17.7143C16.6534 12.5714 15.636 12.9929 14.8859 13.743C14.1357 14.4931 13.7143 15.5106 13.7143 16.5714C13.7143 17.6323 14.1357 18.6497 14.8859 19.3999C15.636 20.15 16.6534 20.5714 17.7143 20.5714H23.4286C24.4894 20.5714 25.5069 20.9929 26.257 21.743C27.0072 22.4932 27.4286 23.5106 27.4286 24.5714C27.4286 25.6323 27.0072 26.6497 26.257 27.3999C25.5069 28.15 24.4894 28.5714 23.4286 28.5714H13.7143" stroke="white" stroke-width="2" stroke-linecap="round" stroke-linejoin="round"/>
</svg>
